#N canvas 244 40 1475 951 12;
#X obj 149 837 dac~ 1;
#X obj 76 347 hsl 162 19 0 1 0 0 empty empty empty -2 -10 0 12 #fcfcfc #000000 #000000 0 1;
#X obj 408 243 hsl 162 19 0 2000 0 0 empty empty empty -2 -10 0 12 #fcfcfc #000000 #000000 0 1;
#X obj 307 690 r dry @hv_param 0 1 1;
#X obj 249 759 *~;
#X obj 150 782 *~, f 5;
#X obj 198 645 r wet @hv_param 0 1 1;
#X obj 184 607 hsl 162 19 0 1 0 0 empty empty empty -2 -10 0 12 #fcfcfc #000000 #000000 0 1;
#X obj 318 749 hsl 162 19 0 1 0 0 empty empty empty -2 -10 0 12 #fcfcfc #000000 #000000 0 1;
#X obj 471 374 hsl 162 19 0 5000 0 0 empty empty empty -2 -10 0 12 #fcfcfc #000000 #000000 0 1;
#X obj 732 -26 r freeze @hv_param 0 1 0 bool;
#X obj 549 467 hsl 162 19 0.2 1 0 0 empty empty empty -2 -10 0 12 #fcfcfc #000000 #000000 0 1;
#N canvas 191 62 1577 920 freez 0;
#X obj 266 612 sel 0 1 2 3 4 5, f 68;
#X obj 243 21 inlet;
#X obj 266 530 int;
#X obj 318 530 + 1;
#X floatatom 223 590 5 0 0 0 - - - 0;
#X obj 191 445 bng 19 250 50 0 empty empty empty 0 -10 0 12 #fcfcfc #000000 #000000;
#X obj 318 565 mod 6;
#X obj 357 184 timer;
#X obj 342 155 sel 0 1;
#X obj 352 47 metro 100;
#X obj 365 126 spigot;
#X obj 351 15 loadbang;
#X floatatom 417 192 5 0 0 0 - - - 0;
#X obj 312 23 bng 19 250 50 0 empty empty empty 0 -10 0 12 #fcfcfc #000000 #000000;
#X obj 248 155 &;
#X obj 248 121 == 0;
#X obj 248 194 &;
#X obj 249 235 sel 1;
#X obj 357 211 > 1000;
#X obj 299 211 == 0;
#X obj 478 20 inlet;
#X obj 478 62 == 0;
#X obj 183 752 inlet~;
#X obj 258 840 tabwrite~ rec01, f 9;
#X obj 338 845 tabwrite~ rec02, f 9;
#X obj 416 851 tabwrite~ rec03, f 9;
#X obj 498 856 tabwrite~ rec04, f 9;
#X obj 582 855 tabwrite~ rec05, f 9;
#X obj 661 854 tabwrite~ rec06, f 9;
#X floatatom 352 286 5 0 0 0 - - - 0;
#X obj 382 956 tabread~ rec02, f 9;
#X obj 219 948 tabread~ rec06, f 9;
#X obj 299 954 tabread~ rec01, f 9;
#X obj 460 958 tabread~ rec03, f 9;
#X obj 541 960 tabread~ rec04, f 9;
#X obj 616 958 tabread~ rec05, f 9;
#X obj 96 767 phasor~;
#X obj 94 874 *~ 48000;
#X floatatom 94 739 5 0 0 0 - - - 0;
#X obj 104 662 bng 19 250 50 0 empty empty empty 0 -10 0 12 #fcfcfc #000000 #000000;
#X obj 144 694 int 0;
#X obj 216 876 *~;
#X obj 302 887 *~;
#X obj 378 885 *~;
#X obj 467 901 *~;
#X obj 536 903 *~;
#X obj 622 906 *~;
#X obj 447 701 inlet;
#X obj 422 329 == 6;
#X text 402 301 inf layers;
#X obj 454 765 *;
#X floatatom 532 717 5 0 0 0 - - - 0;
#X floatatom 301 703 5 0 0 0 - - - 0;
#X obj 311 249 inlet;
#X obj 45 739 int 1;
#X obj 251 676 s attack01;
#X obj 336 678 s attack02;
#X obj 425 675 s attack03;
#X obj 686 677 s attack06;
#X obj 597 677 s attack05;
#X obj 506 676 s attack04;
#X obj 589 432 s decay01;
#X obj 728 431 s decay03;
#X obj 646 459 s decay02;
#X obj 807 474 s decay04;
#X obj 965 471 s decay06;
#X obj 880 449 s decay05;
#X obj 525 282 spigot;
#X obj 516 229 sel 1;
#X obj 504 192 bng 19 250 50 0 empty empty empty 0 -10 0 12 #fcfcfc #000000 #000000;
#X obj 565 215 == 0;
#N canvas 593 139 1281 749 volmanager 0;
#X obj -49 81 bng 19 250 50 0 empty empty empty 0 -10 0 12 #fcfcfc #000000 #000000;
#X obj 267 303 tabwrite vol;
#X obj 263 258 int 1;
#X obj 377 302 mod 6;
#X obj 268 385 tabwrite vol;
#X obj 268 345 float 0.7;
#X obj 377 269 - 1;
#X obj 443 299 mod 6;
#X obj 443 266 - 2;
#X obj 270 472 tabwrite vol;
#X obj 270 432 float 0.5;
#X obj 504 298 mod 6;
#X obj 504 265 - 3;
#X obj 274 551 tabwrite vol;
#X obj 274 511 float 0.4;
#X obj 564 298 mod 6;
#X obj 564 265 - 4;
#X obj 621 296 mod 6;
#X obj 621 264 - 5;
#X obj 280 639 tabwrite vol;
#X obj 278 718 tabwrite vol;
#X obj 279 588 float 0.2;
#X obj 278 678 float 0;
#X obj 65 87 hsl 162 19 0 1 0 0 empty empty empty -2 -10 0 12 #fcfcfc #000000 #000000 0 1;
#X obj -15 466 pow 1.4;
#X obj -15 409 pow 1.4;
#X obj -17 365 pow 1.4;
#X floatatom -281 75 5 1 5 0 - - - 0;
#X obj 67 311 *;
#X obj -46 170 t b f;
#X obj 72 383 *;
#X obj -38 213 delay 1;
#X obj 70 430 *;
#X obj 66 487 *;
#X obj -178 373 * 1;
#X obj -63 243 > 1;
#X obj -68 309 > 2;
#X obj -67 375 > 3;
#X obj -77 450 > 4;
#X obj -196 314 float 1.6;
#X obj -279 317 float 1.8;
#X obj -369 270 sel 3 4 5, f 35;
#X obj -363 318 float 2.2;
#X text -289 33 numbers of layers 6=infinite;
#X obj -283 49 inlet;
#X obj -52 49 inlet;
#X text -55 28 freez triger;
#X obj 54 45 inlet;
#X text 51 24 freez layers vol;
#X obj 291 63 inlet;
#X obj -86 265 &&;
#X obj -143 165 != 6;
#X obj -86 334 &&;
#X obj -85 400 &&;
#X obj -94 477 &&;
#X text 288 36 currentStep;
#X connect 0 0 2 0;
#X connect 0 0 5 0;
#X connect 0 0 10 0;
#X connect 0 0 14 0;
#X connect 0 0 21 0;
#X connect 0 0 22 0;
#X connect 2 0 1 0;
#X connect 3 0 4 1;
#X connect 5 0 4 0;
#X connect 6 0 3 0;
#X connect 7 0 9 1;
#X connect 8 0 7 0;
#X connect 10 0 9 0;
#X connect 11 0 13 1;
#X connect 12 0 11 0;
#X connect 14 0 13 0;
#X connect 15 0 19 1;
#X connect 16 0 15 0;
#X connect 17 0 20 1;
#X connect 18 0 17 0;
#X connect 21 0 19 0;
#X connect 22 0 20 0;
#X connect 23 0 5 0;
#X connect 23 0 28 0;
#X connect 24 0 33 0;
#X connect 25 0 24 0;
#X connect 25 0 32 0;
#X connect 26 0 25 0;
#X connect 26 0 30 0;
#X connect 27 0 29 0;
#X connect 27 0 35 0;
#X connect 27 0 36 0;
#X connect 27 0 37 0;
#X connect 27 0 38 0;
#X connect 27 0 41 0;
#X connect 27 0 51 0;
#X connect 28 0 26 0;
#X connect 28 0 5 0;
#X connect 29 0 31 0;
#X connect 30 0 10 0;
#X connect 31 0 32 0;
#X connect 31 0 33 0;
#X connect 31 0 30 0;
#X connect 31 0 28 0;
#X connect 32 0 14 0;
#X connect 33 0 21 0;
#X connect 34 0 26 1;
#X connect 34 0 25 1;
#X connect 34 0 24 1;
#X connect 35 0 50 1;
#X connect 36 0 52 1;
#X connect 37 0 53 1;
#X connect 38 0 54 1;
#X connect 39 0 34 0;
#X connect 40 0 34 0;
#X connect 41 0 42 0;
#X connect 41 1 40 0;
#X connect 41 2 39 0;
#X connect 42 0 34 0;
#X connect 44 0 27 0;
#X connect 45 0 0 0;
#X connect 47 0 23 0;
#X connect 49 0 1 1;
#X connect 49 0 6 0;
#X connect 49 0 8 0;
#X connect 49 0 12 0;
#X connect 49 0 16 0;
#X connect 49 0 18 0;
#X connect 50 0 28 1;
#X connect 51 0 50 0;
#X connect 51 0 52 0;
#X connect 51 0 54 0;
#X connect 51 0 53 0;
#X connect 52 0 30 1;
#X connect 53 0 32 1;
#X connect 54 0 33 1;
#X restore 139 358 pd volmanager;
#X obj 127 268 s volchange;
#X obj 129 563 s currentStep;
#X obj 445 735 float;
#X obj 617 358 tabwrite~ rec01, f 9;
#X obj 697 363 tabwrite~ rec02, f 9;
#X obj 775 369 tabwrite~ rec03, f 9;
#X obj 857 374 tabwrite~ rec04, f 9;
#X obj 941 373 tabwrite~ rec05, f 9;
#X obj 1020 372 tabwrite~ rec06, f 9;
#X obj 30 207 t b;
#X obj 31 322 s manualStepChange;
#X text 236 0 freez;
#X text 475 -2 mode;
#X text 307 231 layers;
#X text 182 729 input;
#X obj 643 187 sel 0 1;
#X obj 514 111 spigot;
#X obj 518 63 == 1;
#X obj 363 93 &;
#X obj -45 180 spigot;
#X obj -43 140 - 1;
#X obj 144 191 bng 19 250 50 0 empty empty empty 0 -10 0 12 #fcfcfc #000000 #000000;
#X floatatom 11 103 5 0 0 0 - - - 0;
#X obj 81 220 delay 10;
#X obj 47 254 delay 5;
#X obj -50 63 r current_step @hv_param 1 6 1 int;
#X floatatom 427 126 5 0 0 0 - - - 0;
#X obj 310 128 spigot;
#X connect 0 0 23 0;
#X connect 0 0 40 0;
#X connect 0 0 55 0;
#X connect 0 1 24 0;
#X connect 0 1 40 0;
#X connect 0 1 56 0;
#X connect 0 2 25 0;
#X connect 0 2 40 0;
#X connect 0 2 57 0;
#X connect 0 3 26 0;
#X connect 0 3 40 0;
#X connect 0 3 60 0;
#X connect 0 4 27 0;
#X connect 0 4 40 0;
#X connect 0 4 59 0;
#X connect 0 5 28 0;
#X connect 0 5 40 0;
#X connect 0 5 58 0;
#X connect 1 0 15 0;
#X connect 1 0 88 0;
#X connect 1 0 90 0;
#X connect 1 0 99 0;
#X connect 2 0 3 0;
#X connect 2 0 0 0;
#X connect 2 0 4 0;
#X connect 2 0 71 3;
#X connect 2 0 73 0;
#X connect 3 0 6 0;
#X connect 5 0 2 0;
#X connect 6 0 2 1;
#X connect 7 0 12 0;
#X connect 7 0 18 0;
#X connect 8 0 7 1;
#X connect 8 1 7 0;
#X connect 9 0 10 0;
#X connect 10 0 7 1;
#X connect 11 0 9 0;
#X connect 11 0 54 0;
#X connect 11 0 48 0;
#X connect 13 0 9 0;
#X connect 14 0 16 0;
#X connect 15 0 14 0;
#X connect 16 0 17 0;
#X connect 17 0 2 0;
#X connect 17 0 71 1;
#X connect 17 0 72 0;
#X connect 17 0 74 0;
#X connect 18 0 19 0;
#X connect 18 0 68 0;
#X connect 18 0 69 0;
#X connect 18 0 70 0;
#X connect 19 0 16 1;
#X connect 20 0 21 0;
#X connect 20 0 89 0;
#X connect 21 0 14 1;
#X connect 21 0 90 1;
#X connect 21 0 91 1;
#X connect 21 0 99 1;
#X connect 22 0 23 0;
#X connect 22 0 24 0;
#X connect 22 0 25 0;
#X connect 22 0 26 0;
#X connect 22 0 27 0;
#X connect 22 0 28 0;
#X connect 29 0 48 0;
#X connect 30 0 43 0;
#X connect 31 0 41 0;
#X connect 32 0 42 0;
#X connect 33 0 44 0;
#X connect 34 0 45 0;
#X connect 35 0 46 0;
#X connect 36 0 37 0;
#X connect 37 0 31 0;
#X connect 37 0 32 0;
#X connect 37 0 30 0;
#X connect 37 0 33 0;
#X connect 37 0 34 0;
#X connect 37 0 35 0;
#X connect 38 0 36 0;
#X connect 39 0 38 0;
#X connect 40 0 36 1;
#X connect 41 0 23 0;
#X connect 42 0 24 0;
#X connect 43 0 25 0;
#X connect 44 0 26 0;
#X connect 45 0 27 0;
#X connect 46 0 28 0;
#X connect 47 0 71 2;
#X connect 47 0 74 0;
#X connect 48 0 50 1;
#X connect 50 0 41 1;
#X connect 50 0 42 1;
#X connect 50 0 43 1;
#X connect 50 0 44 1;
#X connect 50 0 45 1;
#X connect 50 0 46 1;
#X connect 50 0 51 0;
#X connect 53 0 29 0;
#X connect 53 0 71 0;
#X connect 54 0 36 0;
#X connect 67 0 61 0;
#X connect 67 0 63 0;
#X connect 67 0 64 0;
#X connect 67 0 65 0;
#X connect 67 0 66 0;
#X connect 67 0 62 0;
#X connect 67 0 75 0;
#X connect 67 0 76 0;
#X connect 67 0 77 0;
#X connect 67 0 78 0;
#X connect 67 0 79 0;
#X connect 67 0 80 0;
#X connect 68 0 67 0;
#X connect 70 0 67 1;
#X connect 74 0 50 0;
#X connect 81 0 95 0;
#X connect 81 0 96 0;
#X connect 87 0 61 0;
#X connect 87 0 63 0;
#X connect 87 0 62 0;
#X connect 87 0 64 0;
#X connect 87 0 66 0;
#X connect 87 0 65 0;
#X connect 87 1 2 0;
#X connect 87 1 71 1;
#X connect 87 1 72 0;
#X connect 88 0 87 0;
#X connect 89 0 88 1;
#X connect 90 0 10 1;
#X connect 90 0 98 0;
#X connect 91 0 81 0;
#X connect 91 0 73 0;
#X connect 91 0 71 3;
#X connect 91 0 3 0;
#X connect 92 0 91 0;
#X connect 94 0 92 0;
#X connect 95 0 72 0;
#X connect 95 0 93 0;
#X connect 95 0 82 0;
#X connect 96 0 71 1;
#X connect 97 0 92 0;
#X connect 99 0 8 0;
#X restore 731 113 pd freez;
#X f 20;
#X obj 760 9 tgl 19 0 empty empty empty 0 -10 0 12 #fcfcfc #000000 #000000 0 1;
#X floatatom 827 54 5 0 0 0 - - - 0;
#X obj 822 4 bng 19 250 50 0 empty empty empty 0 -10 0 12 #fcfcfc #000000 #000000;
#N canvas 64 102 450 250 (subpatch) 0;
#X array rec01 48001 float 2;
#X coords 0 1 48001 -1 200 140 1 0 0;
#X restore 818 245 graph;
#N canvas 64 102 450 250 (subpatch) 0;
#X array rec02 48001 float 2;
#X coords 0 1 48001 -1 200 140 1 0 0;
#X restore 814 408 graph;
#N canvas 64 102 450 250 (subpatch) 0;
#X array rec03 48001 float 2;
#X coords 0 1 48001 -1 200 140 1 0 0;
#X restore 811 567 graph;
#N canvas 64 102 450 250 (subpatch) 0;
#X array rec04 48001 float 2;
#X coords 0 1 48001 -1 200 140 1 0 0;
#X restore 1038 245 graph;
#N canvas 64 102 450 250 (subpatch) 0;
#X array rec05 48001 float 2;
#X coords 0 1 48001 -1 200 140 1 0 0;
#X restore 1034 412 graph;
#N canvas 64 102 450 250 (subpatch) 0;
#X array rec06 48001 float 2;
#X coords 0 1 48001 -1 200 140 1 0 0;
#X restore 1034 571 graph;
#X floatatom 881 55 5 0 0 0 - - - 0;
#X obj 489 -58 hsl 162 19 0 1 0 0 empty empty empty -2 -10 0 12 #fcfcfc #000000 #000000 0 1;
#N canvas 64 69 1084 931 player01 0;
#X obj 61 351 phasor~;
#X obj 152 703 *~;
#X obj 279 351 phasor~;
#X obj 62 386 *~ 48000;
#X obj 279 383 *~ 48000;
#X obj 92 269 inlet;
#X obj 161 878 outlet~;
#X obj 375 262 * 48000;
#X obj 375 225 inlet;
#X floatatom 389 741 5 0 0 0 - - - 0;
#X obj 337 700 / 48000;
#X obj 293 650 int 48000;
#X obj 388 623 t b f;
#X obj 283 836 *;
#X obj 418 700 t b f;
#X obj 334 731 float;
#X obj 31 482 cos~;
#X obj 108 617 *~;
#X obj 32 520 -~ 1;
#X obj 31 551 *~ -0.5;
#X obj 148 618 *~;
#X obj 116 518 +~ 1;
#X obj 134 543 *~ 0.5;
#X obj 200 389 float 0.5;
#X obj 215 352 int 0;
#X obj 237 32 inlet;
#X obj 161 34 inlet;
#X obj 178 67 r decay01;
#X obj 91 99 pack 1 500;
#X obj 130 151 line~ 1 0;
#X obj 182 110 pack 0 500;
#X obj 698 86 tabread vol;
#X floatatom 339 168 5 0 0 0 - - - 0;
#X obj 669 33 bng 19 250 50 0 empty empty empty 0 -10 0 12 #fcfcfc #000000 #000000;
#X obj 698 29 r volchange;
#X obj 340 140 spigot;
#X obj 343 73 != 0;
#X floatatom 397 62 5 0 0 0 - - - 0;
#X obj 342 38 r currentStep;
#X obj 698 59 int 0;
#X obj 163 249 int 0;
#X obj 209 193 delay;
#X obj 306 194 / 0.002;
#X obj 208 250 line 1 0;
#X obj 208 221 pack 0.5 10;
#X obj 62 455 tabread4~ rec01;
#X obj 243 452 tabread4~ rec01;
#X floatatom 418 873 5 0 0 0 - - - 0;
#X obj -41 230 - 1;
#X obj -41 266 clip 0 1;
#X obj -42 328 float;
#X obj -43 361 *;
#X obj 48 21 r attack01;
#X obj 43 58 delay;
#X floatatom -29 394 5 0 0 0 - - - 0;
#X obj 261 176 /;
#X obj 261 148 float;
#X obj 60 238 t b;
#X obj 29 305 t b;
#X obj -42 296 * 1000;
#X obj 298 12 r manualStepChange;
#X obj 297 61 == 0;
#X obj 279 86 spigot;
#X connect 0 0 16 0;
#X connect 0 0 3 0;
#X connect 1 0 6 0;
#X connect 2 0 4 0;
#X connect 3 0 45 0;
#X connect 4 0 46 0;
#X connect 5 0 14 0;
#X connect 5 0 48 0;
#X connect 5 0 55 1;
#X connect 5 0 57 0;
#X connect 7 0 4 1;
#X connect 7 0 3 1;
#X connect 7 0 12 0;
#X connect 8 0 42 0;
#X connect 8 0 51 1;
#X connect 8 0 58 0;
#X connect 8 0 7 0;
#X connect 10 0 9 0;
#X connect 10 0 15 0;
#X connect 11 0 10 0;
#X connect 12 0 11 0;
#X connect 12 1 10 1;
#X connect 13 0 0 0;
#X connect 13 0 2 0;
#X connect 13 0 47 0;
#X connect 14 0 15 0;
#X connect 14 1 13 1;
#X connect 15 0 13 0;
#X connect 16 0 18 0;
#X connect 16 0 21 0;
#X connect 17 0 1 0;
#X connect 18 0 19 0;
#X connect 19 0 17 1;
#X connect 20 0 1 0;
#X connect 21 0 22 0;
#X connect 22 0 20 1;
#X connect 23 0 2 1;
#X connect 24 0 0 1;
#X connect 25 0 30 1;
#X connect 26 0 28 1;
#X connect 27 0 30 0;
#X connect 28 0 29 0;
#X connect 29 0 1 1;
#X connect 30 0 29 0;
#X connect 31 0 35 0;
#X connect 33 0 39 0;
#X connect 34 0 39 0;
#X connect 35 0 32 0;
#X connect 35 0 30 0;
#X connect 36 0 35 1;
#X connect 38 0 36 0;
#X connect 38 0 37 0;
#X connect 38 0 61 0;
#X connect 39 0 31 0;
#X connect 40 0 22 1;
#X connect 41 0 44 0;
#X connect 42 0 56 0;
#X connect 43 0 22 1;
#X connect 44 0 43 0;
#X connect 45 0 17 0;
#X connect 46 0 20 0;
#X connect 48 0 49 0;
#X connect 49 0 59 0;
#X connect 50 0 51 0;
#X connect 51 0 53 1;
#X connect 51 0 54 0;
#X connect 52 0 53 0;
#X connect 53 0 40 0;
#X connect 53 0 41 0;
#X connect 53 0 24 0;
#X connect 53 0 23 0;
#X connect 53 0 28 0;
#X connect 55 0 41 1;
#X connect 56 0 55 0;
#X connect 57 0 56 0;
#X connect 58 0 50 0;
#X connect 59 0 50 0;
#X connect 60 0 62 0;
#X connect 61 0 62 1;
#X connect 62 0 28 0;
#X restore 36 564 pd player01;
#N canvas 515 38 1026 978 player02 0;
#X obj 66 368 phasor~;
#X obj 159 693 *~;
#X obj 284 368 phasor~;
#X obj 212 383 int 0;
#X obj 205 422 float 0.5;
#X obj 67 403 *~ 48000;
#X obj 284 400 *~ 48000;
#X obj 84 280 inlet;
#X obj 158 872 outlet~;
#X obj 380 279 * 48000;
#X obj 380 242 inlet;
#X floatatom 399 814 5 0 0 0 - - - 0;
#X obj 347 773 / 48000;
#X obj 291 726 int 48000;
#X obj 448 746 t b f;
#X obj 293 909 *;
#X obj 349 853 t b f;
#X obj 344 804 float;
#X obj 32 497 cos~;
#X obj 82 620 *~;
#X obj 37 545 -~ 1;
#X obj 36 570 *~ -0.5;
#X obj 118 620 *~;
#X obj 115 546 +~ 1;
#X obj 112 571 *~ 0.5;
#X obj 240 39 inlet;
#X obj 161 34 inlet;
#X obj 76 126 pack 1 500;
#X obj 149 159 line~ 1 0;
#X obj 181 111 pack 0 500;
#X obj 187 65 r decay02;
#X obj 677 145 tabread vol;
#X floatatom 339 151 5 0 0 0 - - - 0;
#X obj 648 92 bng 19 250 50 0 empty empty empty 0 -10 0 12 #fcfcfc #000000 #000000;
#X obj 677 88 r volchange;
#X obj 339 107 spigot;
#X floatatom 412 82 5 0 0 0 - - - 0;
#X obj 342 38 r currentStep;
#X obj 343 73 != 1;
#X obj 677 118 int 1;
#X obj 162 250 int 0;
#X obj 207 196 delay;
#X obj 318 194 / 0.002;
#X obj 205 248 line 1 0;
#X obj 208 221 pack 0.5 10;
#X obj 67 472 tabread4~ rec02;
#X obj 273 471 tabread4~ rec02;
#X obj -41 230 - 1;
#X obj -41 266 clip 0 1;
#X obj -42 328 float;
#X obj -43 361 *;
#X obj 68 29 r attack02;
#X obj 33 72 delay;
#X obj 261 176 /;
#X obj 261 148 float;
#X obj 21 298 t b;
#X obj 55 235 t b;
#X obj -42 298 * 1000;
#X obj 298 12 r manualStepChange;
#X obj 279 86 spigot;
#X obj 297 61 == 1;
#X connect 0 0 5 0;
#X connect 0 0 18 0;
#X connect 1 0 8 0;
#X connect 2 0 6 0;
#X connect 3 0 0 1;
#X connect 4 0 2 1;
#X connect 5 0 45 0;
#X connect 6 0 46 0;
#X connect 7 0 16 0;
#X connect 7 0 47 0;
#X connect 7 0 53 1;
#X connect 7 0 56 0;
#X connect 9 0 6 1;
#X connect 9 0 5 1;
#X connect 9 0 14 0;
#X connect 10 0 9 0;
#X connect 10 0 42 0;
#X connect 10 0 50 1;
#X connect 10 0 55 0;
#X connect 12 0 11 0;
#X connect 12 0 17 0;
#X connect 13 0 12 0;
#X connect 14 0 13 0;
#X connect 14 1 12 1;
#X connect 15 0 0 0;
#X connect 15 0 2 0;
#X connect 16 0 17 0;
#X connect 16 1 15 1;
#X connect 17 0 15 0;
#X connect 18 0 20 0;
#X connect 18 0 23 0;
#X connect 19 0 1 0;
#X connect 20 0 21 0;
#X connect 21 0 19 1;
#X connect 22 0 1 0;
#X connect 23 0 24 0;
#X connect 24 0 22 1;
#X connect 25 0 29 1;
#X connect 26 0 27 1;
#X connect 27 0 28 0;
#X connect 28 0 1 1;
#X connect 29 0 28 0;
#X connect 30 0 29 0;
#X connect 31 0 35 0;
#X connect 33 0 39 0;
#X connect 34 0 39 0;
#X connect 35 0 32 0;
#X connect 35 0 29 0;
#X connect 37 0 36 0;
#X connect 37 0 38 0;
#X connect 37 0 60 0;
#X connect 38 0 35 1;
#X connect 39 0 31 0;
#X connect 40 0 24 1;
#X connect 41 0 44 0;
#X connect 42 0 54 0;
#X connect 43 0 24 1;
#X connect 44 0 43 0;
#X connect 45 0 19 0;
#X connect 46 0 22 0;
#X connect 47 0 48 0;
#X connect 48 0 57 0;
#X connect 49 0 50 0;
#X connect 50 0 52 1;
#X connect 51 0 52 0;
#X connect 52 0 41 0;
#X connect 52 0 40 0;
#X connect 52 0 3 0;
#X connect 52 0 27 0;
#X connect 52 0 4 0;
#X connect 53 0 41 1;
#X connect 54 0 53 0;
#X connect 55 0 49 0;
#X connect 56 0 54 0;
#X connect 57 0 49 0;
#X connect 58 0 59 0;
#X connect 59 0 27 0;
#X connect 60 0 59 1;
#X restore 122 566 pd player02;
#N canvas 288 42 1025 962 player03 0;
#X obj 50 361 phasor~;
#X obj 145 741 *~;
#X obj 268 361 phasor~;
#X obj 205 382 int 0;
#X obj 189 415 float 0.5;
#X obj 51 396 *~ 48000;
#X obj 268 393 *~ 48000;
#X obj 85 267 inlet;
#X obj 158 917 outlet~;
#X obj 364 272 * 48000;
#X obj 364 235 inlet;
#X floatatom 396 802 5 0 0 0 - - - 0;
#X obj 344 761 / 48000;
#X obj 288 714 int 48000;
#X obj 445 734 t b f;
#X obj 290 897 *;
#X obj 346 841 t b f;
#X obj 341 792 float;
#X obj 21 489 cos~;
#X obj 105 646 *~;
#X obj 20 519 -~ 1;
#X obj 24 551 *~ -0.5;
#X obj 138 642 *~;
#X obj 102 526 +~ 1;
#X obj 99 551 *~ 0.5;
#X obj 237 32 inlet;
#X obj 161 34 inlet;
#X obj 78 119 pack 1 500;
#X obj 149 159 line~ 1 0;
#X obj 181 119 pack 0 500;
#X obj 172 65 r decay03;
#X obj 711 115 tabread vol;
#X floatatom 339 151 5 0 0 0 - - - 0;
#X obj 682 62 bng 19 250 50 0 empty empty empty 0 -10 0 12 #fcfcfc #000000 #000000;
#X obj 711 58 r volchange;
#X obj 339 107 spigot;
#X floatatom 412 82 5 0 0 0 - - - 0;
#X obj 342 38 r currentStep;
#X obj 343 73 != 2;
#X obj 711 89 int 2;
#X obj 160 251 int 0;
#X obj 207 196 delay;
#X obj 313 195 / 0.002;
#X obj 205 248 line 1 0;
#X obj 208 221 pack 0.5 10;
#X obj 51 465 tabread4~ rec03;
#X obj 257 464 tabread4~ rec03;
#X obj -41 230 - 1;
#X obj -41 266 clip 0 1;
#X obj -42 328 float;
#X obj -43 361 *;
#X obj 28 308 t b;
#X obj 38 64 delay;
#X obj 264 189 /;
#X obj 261 148 float;
#X obj 59 238 t b;
#X obj 71 20 r attack03;
#X obj -42 298 * 1000;
#X obj 298 12 r manualStepChange;
#X obj 279 86 spigot;
#X obj 297 61 == 2;
#X connect 0 0 5 0;
#X connect 0 0 18 0;
#X connect 1 0 8 0;
#X connect 2 0 6 0;
#X connect 3 0 0 1;
#X connect 4 0 2 1;
#X connect 5 0 45 0;
#X connect 6 0 46 0;
#X connect 7 0 16 0;
#X connect 7 0 47 0;
#X connect 7 0 53 1;
#X connect 7 0 55 0;
#X connect 9 0 6 1;
#X connect 9 0 5 1;
#X connect 9 0 14 0;
#X connect 10 0 9 0;
#X connect 10 0 42 0;
#X connect 10 0 51 0;
#X connect 10 0 50 1;
#X connect 12 0 11 0;
#X connect 12 0 17 0;
#X connect 13 0 12 0;
#X connect 14 0 13 0;
#X connect 14 1 12 1;
#X connect 15 0 0 0;
#X connect 15 0 2 0;
#X connect 16 0 17 0;
#X connect 16 1 15 1;
#X connect 17 0 15 0;
#X connect 18 0 20 0;
#X connect 18 0 23 0;
#X connect 19 0 1 0;
#X connect 20 0 21 0;
#X connect 21 0 19 1;
#X connect 22 0 1 0;
#X connect 23 0 24 0;
#X connect 24 0 22 1;
#X connect 25 0 29 1;
#X connect 26 0 27 1;
#X connect 27 0 28 0;
#X connect 28 0 1 1;
#X connect 29 0 28 0;
#X connect 30 0 29 0;
#X connect 31 0 35 0;
#X connect 33 0 39 0;
#X connect 34 0 39 0;
#X connect 35 0 32 0;
#X connect 35 0 29 0;
#X connect 37 0 36 0;
#X connect 37 0 38 0;
#X connect 37 0 60 0;
#X connect 38 0 35 1;
#X connect 39 0 31 0;
#X connect 40 0 24 1;
#X connect 41 0 44 0;
#X connect 42 0 54 0;
#X connect 43 0 24 1;
#X connect 44 0 43 0;
#X connect 45 0 19 0;
#X connect 46 0 22 0;
#X connect 47 0 48 0;
#X connect 48 0 57 0;
#X connect 49 0 50 0;
#X connect 50 0 52 1;
#X connect 51 0 49 0;
#X connect 52 0 41 0;
#X connect 52 0 40 0;
#X connect 52 0 3 0;
#X connect 52 0 27 0;
#X connect 52 0 4 0;
#X connect 53 0 41 1;
#X connect 54 0 53 0;
#X connect 55 0 54 0;
#X connect 56 0 52 0;
#X connect 57 0 49 0;
#X connect 58 0 59 0;
#X connect 59 0 27 0;
#X connect 60 0 59 1;
#X restore 208 566 pd player03;
#N canvas 286 38 1242 960 player06 0;
#X obj 62 397 phasor~;
#X obj 149 777 *~;
#X obj 280 397 phasor~;
#X obj 208 408 int 0;
#X obj 201 451 float 0.5;
#X obj 63 432 *~ 48000;
#X obj 280 429 *~ 48000;
#X obj 85 301 inlet;
#X obj 149 935 outlet~;
#X obj 376 308 * 48000;
#X obj 376 271 inlet;
#X floatatom 376 823 5 0 0 0 - - - 0;
#X obj 324 782 / 48000;
#X obj 268 735 int 48000;
#X obj 425 755 t b f;
#X obj 270 918 *;
#X obj 326 862 t b f;
#X obj 321 813 float;
#X obj 35 545 cos~;
#X obj 95 694 *~;
#X obj 37 582 -~ 1;
#X obj 37 608 *~ -0.5;
#X obj 135 695 *~;
#X obj 106 580 +~ 1;
#X obj 109 613 *~ 0.5;
#X obj 237 32 inlet;
#X obj 161 34 inlet;
#X obj 97 120 pack 1 500;
#X obj 149 159 line~ 1 0;
#X obj 181 118 pack 0 500;
#X obj 179 61 r decay06;
#X obj 713 116 tabread vol;
#X floatatom 339 153 5 0 0 0 - - - 0;
#X obj 684 63 bng 19 250 50 0 empty empty empty 0 -10 0 12 #fcfcfc #000000 #000000;
#X obj 713 59 r volchange;
#X obj 339 109 spigot;
#X floatatom 412 84 5 0 0 0 - - - 0;
#X obj 344 36 r currentStep;
#X obj 343 75 != 5;
#X obj 713 88 int 5;
#X obj 160 251 int 0;
#X obj 207 196 delay;
#X obj 317 195 / 0.002;
#X obj 205 248 line 1 0;
#X obj 208 221 pack 0.5 10;
#X obj 63 501 tabread4~ rec06;
#X obj 269 500 tabread4~ rec06;
#X obj -41 230 - 1;
#X obj -41 266 clip 0 1;
#X obj -42 328 float;
#X obj -43 361 *;
#X obj 21 299 t b;
#X obj 48 62 delay;
#X obj 261 176 /;
#X obj 261 148 float;
#X obj 59 238 t b;
#X obj 60 20 r attack06;
#X obj -42 297 * 1000;
#X obj 298 12 r manualStepChange;
#X obj 279 86 spigot;
#X obj 297 61 == 5;
#X connect 0 0 5 0;
#X connect 0 0 18 0;
#X connect 1 0 8 0;
#X connect 2 0 6 0;
#X connect 3 0 0 1;
#X connect 4 0 2 1;
#X connect 5 0 45 0;
#X connect 6 0 46 0;
#X connect 7 0 16 0;
#X connect 7 0 47 0;
#X connect 7 0 53 1;
#X connect 7 0 55 0;
#X connect 9 0 6 1;
#X connect 9 0 5 1;
#X connect 9 0 14 0;
#X connect 10 0 9 0;
#X connect 10 0 42 0;
#X connect 10 0 51 0;
#X connect 10 0 50 1;
#X connect 12 0 11 0;
#X connect 12 0 17 0;
#X connect 13 0 12 0;
#X connect 14 0 13 0;
#X connect 14 1 12 1;
#X connect 15 0 0 0;
#X connect 15 0 2 0;
#X connect 16 0 17 0;
#X connect 16 1 15 1;
#X connect 17 0 15 0;
#X connect 18 0 20 0;
#X connect 18 0 23 0;
#X connect 19 0 1 0;
#X connect 20 0 21 0;
#X connect 21 0 19 1;
#X connect 22 0 1 0;
#X connect 23 0 24 0;
#X connect 24 0 22 1;
#X connect 25 0 29 1;
#X connect 26 0 27 1;
#X connect 27 0 28 0;
#X connect 28 0 1 1;
#X connect 29 0 28 0;
#X connect 30 0 29 0;
#X connect 31 0 35 0;
#X connect 33 0 39 0;
#X connect 34 0 39 0;
#X connect 35 0 32 0;
#X connect 35 0 29 0;
#X connect 37 0 36 0;
#X connect 37 0 38 0;
#X connect 37 0 60 0;
#X connect 38 0 35 1;
#X connect 39 0 31 0;
#X connect 40 0 24 1;
#X connect 41 0 44 0;
#X connect 42 0 54 0;
#X connect 43 0 24 1;
#X connect 44 0 43 0;
#X connect 45 0 19 0;
#X connect 46 0 22 0;
#X connect 47 0 48 0;
#X connect 48 0 57 0;
#X connect 49 0 50 0;
#X connect 50 0 52 1;
#X connect 51 0 49 0;
#X connect 52 0 41 0;
#X connect 52 0 40 0;
#X connect 52 0 27 0;
#X connect 52 0 3 0;
#X connect 52 0 4 0;
#X connect 53 0 41 1;
#X connect 54 0 53 0;
#X connect 55 0 54 0;
#X connect 56 0 52 0;
#X connect 57 0 49 0;
#X connect 58 0 59 0;
#X connect 59 0 27 0;
#X connect 60 0 59 1;
#X restore 474 567 pd player06;
#X obj 37 324 r speed @hv_param 0 2 1;
#X obj 846 4 r mode @hv_param 0 1 0 int;
#N canvas 32 70 450 250 (subpatch) 0;
#X array vol 6 float 2;
#X coords 0 1 6 -1 200 140 1 0 0;
#X restore 810 727 graph;
#X floatatom 456 66 5 1 6 0 - - - 0;
#X floatatom 432 -12 5 0 0 0 - - - 0;
#X obj 302 144 s volchange;
#X obj 339 19 t b;
#X obj 487 -35 r layers_volume @hv_param 0 1 0.8;
#X obj 492 3 float;
#X obj 305 71 delay 2;
#N canvas 718 137 714 597 pitchshift 0;
#X obj 163 477 *~;
#X obj 207 475 *~;
#N canvas 567 200 1085 761 shape 0;
#X obj 370 43 inlet;
#X obj 84 32 inlet;
#X obj 52 661 outlet~;
#X obj 233 257 phasor~;
#X obj 311 263 phasor~;
#X obj 65 376 cos~;
#X obj 194 184 int 0;
#X obj 192 661 outlet~;
#X obj 273 660 outlet~;
#X obj 120 663 outlet~;
#X obj 243 180 float 0.5;
#X obj 362 663 outlet~;
#X obj 278 489 -~ 1;
#X obj 310 520 *~ -0.5;
#X obj 225 549 +~ 1;
#X obj 257 580 *~ 0.5;
#X obj 221 365 *~ 500;
#X obj 294 372 *~ 500;
#X connect 0 0 4 0;
#X connect 0 0 3 0;
#X connect 1 0 6 0;
#X connect 1 0 10 0;
#X connect 3 0 5 0;
#X connect 3 0 16 0;
#X connect 4 0 17 0;
#X connect 5 0 12 0;
#X connect 5 0 14 0;
#X connect 6 0 3 1;
#X connect 10 0 4 1;
#X connect 12 0 13 0;
#X connect 13 0 11 0;
#X connect 14 0 15 0;
#X connect 15 0 8 0;
#X connect 16 0 2 0;
#X connect 17 0 9 0;
#X restore 174 240 pd shape selector;
#X obj 168 508 outlet~;
#X obj 172 34 inlet~;
#X obj 173 115 delwrite~ pitch 1000;
#X obj 306 203 * 0.01;
#X obj 163 420 delread4~ pitch 1;
#X obj 287 419 delread4~ pitch 1;
#X obj 342 174 float 0.4;
#X obj 355 132 loadbang;
#X connect 0 0 3 0;
#X connect 1 0 3 0;
#X connect 2 0 7 0;
#X connect 2 1 8 0;
#X connect 2 3 1 1;
#X connect 2 4 0 1;
#X connect 4 0 5 0;
#X connect 6 0 2 1;
#X connect 7 0 0 0;
#X connect 8 0 1 0;
#X connect 9 0 6 0;
#X connect 10 0 2 0;
#X connect 10 0 9 0;
#X restore 24 726 pd pitchshift;
#X obj 115 672 *~ 0.5;
#X obj 295 217 adc~ 1;
#N canvas 792 38 1026 978 player04 0;
#X obj 66 368 phasor~;
#X obj 159 693 *~;
#X obj 284 368 phasor~;
#X obj 212 383 int 0;
#X obj 205 422 float 0.5;
#X obj 67 403 *~ 48000;
#X obj 284 400 *~ 48000;
#X obj 84 280 inlet;
#X obj 158 872 outlet~;
#X obj 380 279 * 48000;
#X obj 380 242 inlet;
#X floatatom 399 814 5 0 0 0 - - - 0;
#X obj 347 773 / 48000;
#X obj 291 726 int 48000;
#X obj 448 746 t b f;
#X obj 293 909 *;
#X obj 349 853 t b f;
#X obj 344 804 float;
#X obj 32 497 cos~;
#X obj 82 620 *~;
#X obj 37 545 -~ 1;
#X obj 36 570 *~ -0.5;
#X obj 118 620 *~;
#X obj 115 546 +~ 1;
#X obj 112 571 *~ 0.5;
#X obj 240 39 inlet;
#X obj 161 34 inlet;
#X obj 76 126 pack 1 500;
#X obj 149 159 line~ 1 0;
#X obj 181 111 pack 0 500;
#X obj 712 130 tabread vol;
#X floatatom 339 151 5 0 0 0 - - - 0;
#X obj 683 77 bng 19 250 50 0 empty empty empty 0 -10 0 12 #fcfcfc #000000 #000000;
#X obj 712 73 r volchange;
#X obj 339 107 spigot;
#X floatatom 412 82 5 0 0 0 - - - 0;
#X obj 342 38 r currentStep;
#X obj 162 250 int 0;
#X obj 207 196 delay;
#X obj 318 194 / 0.002;
#X obj 205 248 line 1 0;
#X obj 208 221 pack 0.5 10;
#X obj -41 230 - 1;
#X obj -41 266 clip 0 1;
#X obj -42 328 float;
#X obj -43 361 *;
#X obj 33 72 delay;
#X obj 261 176 /;
#X obj 261 148 float;
#X obj 21 298 t b;
#X obj 55 235 t b;
#X obj -42 298 * 1000;
#X obj 298 12 r manualStepChange;
#X obj 279 86 spigot;
#X obj 68 29 r attack04;
#X obj 187 65 r decay04;
#X obj 297 61 == 3;
#X obj 343 73 != 3;
#X obj 712 103 int 3;
#X obj 273 471 tabread4~ rec04;
#X obj 67 472 tabread4~ rec04;
#X connect 0 0 5 0;
#X connect 0 0 18 0;
#X connect 1 0 8 0;
#X connect 2 0 6 0;
#X connect 3 0 0 1;
#X connect 4 0 2 1;
#X connect 5 0 60 0;
#X connect 6 0 59 0;
#X connect 7 0 16 0;
#X connect 7 0 42 0;
#X connect 7 0 47 1;
#X connect 7 0 50 0;
#X connect 9 0 6 1;
#X connect 9 0 5 1;
#X connect 9 0 14 0;
#X connect 10 0 9 0;
#X connect 10 0 39 0;
#X connect 10 0 45 1;
#X connect 10 0 49 0;
#X connect 12 0 11 0;
#X connect 12 0 17 0;
#X connect 13 0 12 0;
#X connect 14 0 13 0;
#X connect 14 1 12 1;
#X connect 15 0 0 0;
#X connect 15 0 2 0;
#X connect 16 0 17 0;
#X connect 16 1 15 1;
#X connect 17 0 15 0;
#X connect 18 0 20 0;
#X connect 18 0 23 0;
#X connect 19 0 1 0;
#X connect 20 0 21 0;
#X connect 21 0 19 1;
#X connect 22 0 1 0;
#X connect 23 0 24 0;
#X connect 24 0 22 1;
#X connect 25 0 29 1;
#X connect 26 0 27 1;
#X connect 27 0 28 0;
#X connect 28 0 1 1;
#X connect 29 0 28 0;
#X connect 30 0 34 0;
#X connect 32 0 58 0;
#X connect 33 0 58 0;
#X connect 34 0 31 0;
#X connect 34 0 29 0;
#X connect 36 0 35 0;
#X connect 36 0 56 0;
#X connect 36 0 57 0;
#X connect 37 0 24 1;
#X connect 38 0 41 0;
#X connect 39 0 48 0;
#X connect 40 0 24 1;
#X connect 41 0 40 0;
#X connect 42 0 43 0;
#X connect 43 0 51 0;
#X connect 44 0 45 0;
#X connect 45 0 46 1;
#X connect 46 0 38 0;
#X connect 46 0 37 0;
#X connect 46 0 3 0;
#X connect 46 0 27 0;
#X connect 46 0 4 0;
#X connect 47 0 38 1;
#X connect 48 0 47 0;
#X connect 49 0 44 0;
#X connect 50 0 48 0;
#X connect 51 0 44 0;
#X connect 52 0 53 0;
#X connect 53 0 27 0;
#X connect 54 0 46 0;
#X connect 55 0 29 0;
#X connect 56 0 53 1;
#X connect 57 0 34 1;
#X connect 58 0 30 0;
#X connect 59 0 22 0;
#X connect 60 0 19 0;
#X restore 296 567 pd player04;
#N canvas 515 38 1026 978 player05 0;
#X obj 66 368 phasor~;
#X obj 159 693 *~;
#X obj 284 368 phasor~;
#X obj 212 383 int 0;
#X obj 205 422 float 0.5;
#X obj 67 403 *~ 48000;
#X obj 284 400 *~ 48000;
#X obj 84 280 inlet;
#X obj 158 872 outlet~;
#X obj 380 279 * 48000;
#X obj 380 242 inlet;
#X floatatom 399 814 5 0 0 0 - - - 0;
#X obj 347 773 / 48000;
#X obj 291 726 int 48000;
#X obj 448 746 t b f;
#X obj 293 909 *;
#X obj 349 853 t b f;
#X obj 344 804 float;
#X obj 32 497 cos~;
#X obj 82 620 *~;
#X obj 37 545 -~ 1;
#X obj 36 570 *~ -0.5;
#X obj 118 620 *~;
#X obj 115 546 +~ 1;
#X obj 112 571 *~ 0.5;
#X obj 240 39 inlet;
#X obj 161 34 inlet;
#X obj 76 126 pack 1 500;
#X obj 149 159 line~ 1 0;
#X obj 181 111 pack 0 500;
#X obj 703 117 tabread vol;
#X floatatom 339 151 5 0 0 0 - - - 0;
#X obj 674 64 bng 19 250 50 0 empty empty empty 0 -10 0 12 #fcfcfc #000000 #000000;
#X obj 703 60 r volchange;
#X obj 339 107 spigot;
#X floatatom 412 82 5 0 0 0 - - - 0;
#X obj 342 38 r currentStep;
#X obj 162 250 int 0;
#X obj 207 196 delay;
#X obj 318 194 / 0.002;
#X obj 205 248 line 1 0;
#X obj 208 221 pack 0.5 10;
#X obj -41 230 - 1;
#X obj -41 266 clip 0 1;
#X obj -42 328 float;
#X obj -43 361 *;
#X obj 33 72 delay;
#X obj 261 176 /;
#X obj 261 148 float;
#X obj 21 298 t b;
#X obj 55 235 t b;
#X obj -42 298 * 1000;
#X obj 298 12 r manualStepChange;
#X obj 279 86 spigot;
#X obj 68 29 r attack05;
#X obj 188 65 r decay05;
#X obj 297 61 == 4;
#X obj 343 73 != 4;
#X obj 703 90 int 4;
#X obj 273 471 tabread4~ rec05;
#X obj 67 472 tabread4~ rec05;
#X connect 0 0 5 0;
#X connect 0 0 18 0;
#X connect 1 0 8 0;
#X connect 2 0 6 0;
#X connect 3 0 0 1;
#X connect 4 0 2 1;
#X connect 5 0 60 0;
#X connect 6 0 59 0;
#X connect 7 0 16 0;
#X connect 7 0 42 0;
#X connect 7 0 47 1;
#X connect 7 0 50 0;
#X connect 9 0 6 1;
#X connect 9 0 5 1;
#X connect 9 0 14 0;
#X connect 10 0 9 0;
#X connect 10 0 39 0;
#X connect 10 0 45 1;
#X connect 10 0 49 0;
#X connect 12 0 11 0;
#X connect 12 0 17 0;
#X connect 13 0 12 0;
#X connect 14 0 13 0;
#X connect 14 1 12 1;
#X connect 15 0 0 0;
#X connect 15 0 2 0;
#X connect 16 0 17 0;
#X connect 16 1 15 1;
#X connect 17 0 15 0;
#X connect 18 0 20 0;
#X connect 18 0 23 0;
#X connect 19 0 1 0;
#X connect 20 0 21 0;
#X connect 21 0 19 1;
#X connect 22 0 1 0;
#X connect 23 0 24 0;
#X connect 24 0 22 1;
#X connect 25 0 29 1;
#X connect 26 0 27 1;
#X connect 27 0 28 0;
#X connect 28 0 1 1;
#X connect 29 0 28 0;
#X connect 30 0 34 0;
#X connect 32 0 58 0;
#X connect 33 0 58 0;
#X connect 34 0 31 0;
#X connect 34 0 29 0;
#X connect 36 0 35 0;
#X connect 36 0 56 0;
#X connect 36 0 57 0;
#X connect 37 0 24 1;
#X connect 38 0 41 0;
#X connect 39 0 48 0;
#X connect 40 0 24 1;
#X connect 41 0 40 0;
#X connect 42 0 43 0;
#X connect 43 0 51 0;
#X connect 44 0 45 0;
#X connect 45 0 46 1;
#X connect 46 0 38 0;
#X connect 46 0 37 0;
#X connect 46 0 3 0;
#X connect 46 0 27 0;
#X connect 46 0 4 0;
#X connect 47 0 38 1;
#X connect 48 0 47 0;
#X connect 49 0 44 0;
#X connect 50 0 48 0;
#X connect 51 0 44 0;
#X connect 52 0 53 0;
#X connect 53 0 27 0;
#X connect 54 0 46 0;
#X connect 55 0 29 0;
#X connect 56 0 53 1;
#X connect 57 0 34 1;
#X connect 58 0 30 0;
#X connect 59 0 22 0;
#X connect 60 0 19 0;
#X restore 385 567 pd player05;
#X obj 550 495 r sample_length @hv_param 0.2 1 1;
#X obj 307 111 spigot;
#X obj 396 114 == 0;
#X obj 446 31 r layers_number @hv_param 1 6 1 int;
#X obj 434 338 *;
#X obj 503 328 t b;
#X obj 436 304 float;
#X obj 373 216 r attack @hv_param 0 2000 100;
#X obj 438 263 r decay @hv_param 0 2000 100;
#X obj 506 291 r decay_x10 @hv_param 1 10 1 bool;
#X connect 1 0 24 0;
#X connect 1 0 25 0;
#X connect 1 0 26 0;
#X connect 1 0 27 0;
#X connect 1 0 41 0;
#X connect 1 0 42 0;
#X connect 2 0 24 1;
#X connect 2 0 25 1;
#X connect 2 0 26 1;
#X connect 2 0 27 1;
#X connect 2 0 41 1;
#X connect 2 0 42 1;
#X connect 3 0 4 1;
#X connect 4 0 0 0;
#X connect 5 0 0 0;
#X connect 6 0 5 1;
#X connect 7 0 5 1;
#X connect 8 0 4 1;
#X connect 9 0 24 2;
#X connect 9 0 27 2;
#X connect 9 0 26 2;
#X connect 9 0 25 2;
#X connect 9 0 42 2;
#X connect 9 0 41 2;
#X connect 10 0 12 1;
#X connect 11 0 24 3;
#X connect 11 0 27 3;
#X connect 11 0 26 3;
#X connect 11 0 25 3;
#X connect 11 0 42 3;
#X connect 11 0 41 3;
#X connect 13 0 12 1;
#X connect 14 0 12 4;
#X connect 15 0 14 0;
#X connect 23 0 32 0;
#X connect 23 0 34 0;
#X connect 23 0 36 0;
#X connect 24 0 39 0;
#X connect 25 0 39 0;
#X connect 26 0 39 0;
#X connect 27 0 39 0;
#X connect 28 0 24 0;
#X connect 28 0 25 0;
#X connect 28 0 26 0;
#X connect 28 0 27 0;
#X connect 28 0 41 0;
#X connect 28 0 42 0;
#X connect 29 0 12 4;
#X connect 29 0 45 0;
#X connect 31 0 12 2;
#X connect 31 0 34 0;
#X connect 34 0 37 0;
#X connect 34 0 36 0;
#X connect 35 0 34 0;
#X connect 35 0 36 0;
#X connect 36 0 12 3;
#X connect 37 0 44 0;
#X connect 38 0 5 0;
#X connect 39 0 5 0;
#X connect 39 0 38 0;
#X connect 40 0 12 0;
#X connect 40 0 4 0;
#X connect 41 0 39 0;
#X connect 42 0 39 0;
#X connect 43 0 24 3;
#X connect 43 0 27 3;
#X connect 43 0 26 3;
#X connect 43 0 25 3;
#X connect 43 0 42 3;
#X connect 43 0 41 3;
#X connect 44 0 33 0;
#X connect 45 0 44 1;
#X connect 46 0 12 2;
#X connect 46 0 34 0;
#X connect 47 0 24 2;
#X connect 47 0 25 2;
#X connect 47 0 26 2;
#X connect 47 0 27 2;
#X connect 47 0 42 2;
#X connect 47 0 41 2;
#X connect 48 0 49 0;
#X connect 49 0 47 0;
#X connect 50 0 24 1;
#X connect 50 0 25 1;
#X connect 50 0 26 1;
#X connect 50 0 27 1;
#X connect 50 0 41 1;
#X connect 50 0 42 1;
#X connect 51 0 49 0;
#X connect 52 0 47 1;
#X connect 52 0 48 0;
